<svg width="157" height="50" viewBox="0 0 157 50" fill="none" xmlns="http://www.w3.org/2000/svg">
<g clip-path="url(#clip0_273_388)">
<path d="M44.8058 9.32275V14.4328H54.2392V40.7555H59.9125V14.4328H69.3458V9.32275H44.8058Z" fill="#213A89"/>
<path d="M79.2119 18.1711C72.7124 18.1711 68.8343 21.467 68.8343 26.9853V40.7555H74.242V27.3839C74.242 24.4254 76.0076 22.7946 79.2144 22.7946H79.6251V18.1711H79.2144H79.2119Z" fill="#213A89"/>
<path d="M99.4012 18.1711V31.3643C99.4012 34.5281 97.4142 36.5721 94.3402 36.5721C91.2663 36.5721 89.3236 34.5281 89.3236 31.3643V18.1711H83.9601V31.3643C83.9601 37.1271 88.2465 41.1516 94.3845 41.1516C100.523 41.1516 104.762 37.1271 104.762 31.3643V18.1711H99.3987H99.4012Z" fill="#213A89"/>
<path d="M116.91 9.32275H111.547V40.7555H116.91V9.32275Z" fill="#213A89"/>
<path d="M129.283 9.32275H123.919V40.7555H129.283V9.32275Z" fill="#213A89"/>
<path d="M151.595 18.1711V30.3912C151.595 33.6626 149.574 35.7775 146.446 35.7775C143.318 35.7775 141.429 33.6626 141.429 30.3912V18.1711H136.066V31.0122C136.066 36.4376 139.767 40.2249 145.064 40.2249C147.761 40.2249 150.034 39.2469 151.593 37.4425V40.2567C151.593 43.5232 149.67 45.555 146.576 45.555C144.746 45.555 143.271 44.7726 142.418 43.3521L142.297 43.1516H137.012L137.212 43.6993C138.645 47.643 142.211 49.9976 146.753 49.9976C152.881 49.9976 156.998 45.9755 156.998 39.9878V18.1711H151.59H151.595Z" fill="#213A89"/>
<path d="M15.1878 0C6.81187 0 0 6.77262 0 15.1002V16.5037H5.01668V15.1002C5.01668 9.52567 9.57842 4.99022 15.1853 4.99022C20.7922 4.99022 25.3539 9.52567 25.3539 15.1002V16.5037H30.3706V15.1002C30.3731 6.77262 23.5612 0 15.1878 0Z" fill="#3737DD"/>
<path d="M19.3531 24.6236C19.3408 22.3082 17.4522 20.4353 15.1209 20.4353C12.7896 20.4353 10.901 22.3082 10.8887 24.6236C10.8887 24.6236 10.8887 24.6309 10.8887 24.6358C10.8887 24.6407 10.8887 24.6431 10.8887 24.648C10.901 26.9634 12.7896 28.8363 15.1209 28.8363C17.4522 28.8363 19.3408 26.9634 19.3531 24.648C19.3531 24.648 19.3531 24.6407 19.3531 24.6358C19.3531 24.6309 19.3531 24.6285 19.3531 24.6236Z" fill="#213A89"/>
<path d="M30.3561 23.2323C30.3561 22.9267 30.3512 22.6211 30.3488 22.3179L30.334 20.4792H25.4329L25.428 22.6039C25.428 22.8142 25.428 23.0245 25.428 23.2323C25.428 24.1321 25.428 25.0343 25.4329 25.934C25.4526 28.1198 24.4763 29.9242 22.4475 31.4548C21.6901 32.0269 20.822 32.5135 19.9047 33.0294C19.6539 33.1712 19.4006 33.313 19.1522 33.4548C18.1759 34.0147 17.1628 34.5722 16.1865 35.1125C15.8569 35.2934 15.5274 35.4744 15.1905 35.6626C14.5856 35.3252 13.9781 34.9903 13.3707 34.6553C11.8731 33.8289 10.3238 32.9756 8.84342 32.0954C6.84167 30.9047 5.5875 29.3374 5.11534 27.4352C5.01697 27.0343 4.96287 26.5746 4.96041 26.0685C4.9555 25.1223 4.9555 24.1785 4.95304 23.2323C4.95304 22.7824 4.95058 22.3325 4.95058 21.8827V20.4792H0.0273438V23.2323V26.0636C0.0273438 27.1785 0.177352 28.1858 0.487206 29.1443C1.4512 32.1321 3.48984 34.5379 6.54903 36.2959C8.2188 37.2568 9.93283 38.1981 11.5903 39.1076C12.4928 39.6039 13.3953 40.0978 14.2929 40.5991C14.5192 40.7262 14.8216 40.8362 15.1807 40.8362C15.4684 40.8362 15.793 40.7653 16.1447 40.5697C17.2882 39.934 18.4317 39.2983 19.5776 38.6651C20.9376 37.912 22.295 37.1565 23.6525 36.401C24.8845 35.7164 25.9788 34.8949 26.9059 33.9609C29.0798 31.7751 30.2307 29.335 30.3242 26.7091C30.366 25.5477 30.366 24.379 30.3586 23.2347L30.3561 23.2323Z" fill="#213A89"/>
</g>
<defs>
<clipPath id="clip0_273_388">
<rect width="157" height="50" fill="white"/>
</clipPath>
</defs>
</svg>
